<?xml version="1.0" standalone="no"?>
<!DOCTYPE svg PUBLIC "-//W3C//DTD SVG 20010904//EN"
 "http://www.w3.org/TR/2001/REC-SVG-20010904/DTD/svg10.dtd">
<svg version="1.0" xmlns="http://www.w3.org/2000/svg"
 width="300.000000pt" height="300.000000pt" viewBox="0 0 300.000000 300.000000"
 preserveAspectRatio="xMidYMid meet">
<metadata>
Created by potrace 1.11, written by Peter Selinger 2001-2013
</metadata>
<g transform="translate(0.000000,300.000000) scale(0.100000,-0.100000)"
fill="#000000" stroke="none">
<path d="M1295 2969 c-27 -4 -57 -9 -65 -11 -27 -7 -120 -61 -120 -70 0 -4 -5
-8 -10 -8 -38 0 -91 -111 -82 -170 9 -60 3 -103 -15 -122 -17 -17 -19 -26 -11
-76 5 -31 25 -88 44 -126 19 -38 34 -76 33 -85 -5 -51 4 -71 46 -115 25 -25
50 -46 55 -46 5 0 32 -13 58 -30 55 -33 92 -37 145 -15 37 15 107 76 107 92 0
5 15 24 33 42 17 19 32 36 33 40 0 3 4 13 7 21 7 15 28 143 29 170 0 8 7 38
16 65 30 95 5 296 -43 348 -56 59 -93 78 -185 92 -3 0 -9 3 -15 6 -5 3 -32 2
-60 -2z"/>
<path d="M535 2133 c-109 -21 -184 -55 -240 -107 -39 -37 -41 -67 -7 -93 24
-19 45 -16 88 14 125 85 269 95 419 29 l55 -25 -25 -58 c-22 -49 -85 -242
-101 -308 -17 -68 -30 -177 -27 -220 2 -30 16 -75 35 -113 24 -47 31 -76 31
-115 -2 -222 -131 -425 -361 -570 -79 -50 -84 -55 -119 -127 -72 -152 -76
-176 -31 -197 43 -19 66 1 113 98 43 88 47 93 120 141 226 148 361 349 390
580 4 29 8 54 9 55 1 1 29 -6 62 -15 37 -12 85 -18 129 -16 79 2 92 -4 169
-75 155 -145 248 -369 262 -631 3 -52 10 -105 16 -117 19 -38 41 -36 199 19
93 32 114 53 98 96 -15 39 -50 44 -124 17 l-65 -23 -5 21 c-2 12 -7 47 -10 77
-6 61 -13 107 -21 132 -3 9 -6 25 -8 35 -8 39 -50 151 -79 208 -41 83 -120
190 -189 255 -32 31 -58 59 -58 63 0 5 11 23 24 40 38 50 74 126 109 229 l33
95 50 -25 c82 -42 175 -62 278 -59 84 3 92 1 93 -16 3 -27 32 -57 58 -57 33 0
49 26 85 133 l32 97 41 0 c96 0 165 40 203 117 60 121 15 270 -100 338 -49 28
-72 35 -131 36 -77 2 -134 -22 -202 -87 -31 -30 -58 -101 -60 -159 -2 -85 28
-138 109 -188 36 -22 27 -54 -20 -74 -104 -43 -234 -31 -352 33 l-50 27 8 51
c13 90 8 188 -12 224 -20 39 -72 92 -107 109 -41 21 -153 61 -187 68 -82 17
-203 -7 -226 -44 -5 -7 -22 -3 -55 13 -85 44 -173 68 -251 71 -41 1 -84 0 -95
-2z"/>
<path d="M2334 1621 c-124 -56 -140 -235 -27 -311 30 -20 49 -25 103 -25 57 0
72 4 103 28 50 38 71 81 71 147 0 129 -132 214 -250 161z"/>
<path d="M1758 1202 c-44 -5 -51 -25 -55 -143 -3 -103 -2 -111 20 -133 l23
-23 497 1 496 1 23 22 c18 19 20 27 12 50 -5 16 -19 32 -32 38 -16 7 -22 18
-22 42 0 21 5 33 13 33 20 0 47 33 47 57 0 11 -9 28 -20 38 -19 17 -52 18
-497 19 -263 1 -490 0 -505 -2z"/>
</g>
</svg>
